<svg xmlns="http://www.w3.org/2000/svg" width="16.048" height="16.693" viewBox="0 0 16.048 16.693">
  <path id="shopping_cart_FILL0_wght300_GRAD0_opsz48" d="M8.222,21.193a1.319,1.319,0,0,1-.984-.411,1.374,1.374,0,0,1-.4-.995A1.366,1.366,0,0,1,8.222,18.4a1.366,1.366,0,0,1,.984.411,1.371,1.371,0,0,1,.011,1.968,1.355,1.355,0,0,1-.995.411Zm8.39,0a1.319,1.319,0,0,1-.984-.411,1.374,1.374,0,0,1-.4-.995,1.376,1.376,0,0,1,2.357-.973,1.4,1.4,0,0,1,.011,1.968A1.319,1.319,0,0,1,16.612,21.193ZM6.968,7.2l2.4,5.017H15.4a.288.288,0,0,0,.13-.032.164.164,0,0,0,.086-.1L18.19,7.441a.181.181,0,0,0,0-.173.146.146,0,0,0-.13-.065Zm-.5-.995H18.45a.914.914,0,0,1,.908.432,1,1,0,0,1-.086.973l-2.66,4.8a1.642,1.642,0,0,1-.541.573,1.317,1.317,0,0,1-.735.227h-6.4L7.746,15.42a.19.19,0,0,0-.011.205.188.188,0,0,0,.184.119H18v.995H8.071a1.28,1.28,0,0,1-1.178-.573A1.157,1.157,0,0,1,6.9,14.922l1.384-2.53L5.022,5.473H3.4V4.5H5.649Zm2.9,6.011h0Z" transform="translate(-3.4 -4.5)" fill="#f2f2f2"/>
</svg>
